<?xml version="1.0" standalone="no"?>
<!DOCTYPE svg PUBLIC "-//W3C//DTD SVG 20010904//EN"
 "http://www.w3.org/TR/2001/REC-SVG-20010904/DTD/svg10.dtd">
<svg version="1.0" xmlns="http://www.w3.org/2000/svg"
 width="605.000000pt" height="605.000000pt" viewBox="0 0 605.000000 605.000000"
 preserveAspectRatio="xMidYMid meet">
<metadata>
Created by potrace 1.14, written by Peter Selinger 2001-2017
</metadata>
<g transform="translate(0.000000,605.000000) scale(0.100000,-0.100000)"
fill="#000000" stroke="none">
<path d="M2261 4784 c-238 -64 -392 -284 -393 -564 -2 -306 163 -529 434 -584
97 -20 149 -20 243 -1 96 20 136 37 213 92 103 73 184 202 212 338 18 83 16
238 -4 313 -54 212 -190 357 -383 407 -73 19 -250 19 -322 -1z m294 -230 c51
-27 108 -102 131 -173 25 -78 26 -255 1 -331 -27 -83 -76 -143 -142 -175 -50
-25 -64 -27 -134 -23 -126 7 -197 63 -247 193 -15 39 -19 76 -19 175 0 116 2
129 28 185 40 85 69 119 129 150 47 23 63 26 133 23 57 -2 92 -9 120 -24z"/>
<path d="M865 4768 c-3 -7 -4 -260 -3 -563 l3 -550 133 -3 132 -3 0 190 0 189
183 4 c225 5 271 19 358 107 73 75 101 144 101 256 1 172 -81 293 -240 357
-54 21 -74 22 -360 26 -244 3 -303 1 -307 -10z m537 -228 c20 -6 50 -26 67
-46 27 -30 31 -43 31 -90 0 -66 -20 -108 -63 -134 -28 -17 -51 -20 -169 -20
l-138 0 0 150 0 150 118 0 c64 0 134 -5 154 -10z"/>
<path d="M3115 4768 c-3 -7 -4 -260 -3 -563 l3 -550 393 -3 392 -2 0 115 0
115 -257 2 -258 3 -3 448 -2 447 -130 0 c-95 0 -132 -3 -135 -12z"/>
<path d="M4030 4215 l0 -566 133 3 132 3 0 560 0 560 -132 3 -133 3 0 -566z"/>
<path d="M3325 3600 c-227 -25 -397 -179 -460 -417 -19 -70 -22 -257 -5 -328
35 -144 150 -300 267 -363 169 -89 386 -91 546 -4 103 55 213 217 219 322 l3
45 -128 3 -127 3 -11 -28 c-32 -82 -51 -113 -81 -136 -139 -103 -332 -34 -399
142 -27 71 -36 200 -19 283 15 78 63 170 104 201 136 100 323 58 376 -86 l16
-42 123 -3 c69 -1 128 1 133 6 14 14 -11 99 -49 174 -88 169 -276 254 -508
228z"/>
<path d="M370 3015 l0 -565 185 0 185 0 0 115 0 114 -72 3 -73 3 0 330 0 330
73 3 73 3 -3 112 -3 112 -182 3 -183 2 0 -565z"/>
<path d="M867 3573 c-4 -3 -7 -55 -7 -115 l0 -108 165 0 165 0 2 -447 3 -448
135 0 135 0 3 448 2 447 165 0 166 0 -3 113 -3 112 -461 3 c-253 1 -464 -1
-467 -5z"/>
<path d="M1937 3573 c-4 -3 -7 -258 -7 -565 l0 -558 433 2 432 3 3 95 c2 52 0
105 -3 118 l-5 22 -295 0 -295 0 0 115 0 115 253 2 252 3 0 105 0 105 -252 3
-253 2 0 105 0 105 293 2 292 3 0 110 0 110 -421 3 c-231 1 -424 -1 -427 -5z"/>
<path d="M4030 3015 l0 -566 133 3 132 3 3 233 2 232 205 0 205 0 0 -235 0
-236 133 3 132 3 0 560 0 560 -132 3 -133 3 0 -221 0 -220 -205 0 -205 0 -2
218 -3 217 -132 3 -133 3 0 -566z"/>
<path d="M5100 3570 c0 -6 70 -132 155 -280 85 -148 155 -272 155 -275 0 -3
-70 -127 -155 -275 -85 -148 -155 -274 -155 -279 0 -7 47 -11 134 -11 l134 0
152 278 c84 152 153 282 153 287 0 13 -282 525 -301 548 -13 14 -34 17 -144
17 -83 0 -128 -4 -128 -10z"/>
<path d="M865 2368 c-3 -7 -4 -260 -3 -563 l3 -550 125 0 125 0 -1 370 0 370
56 -110 c56 -108 339 -583 368 -618 14 -15 31 -17 146 -15 l131 3 3 563 2 563
-127 -3 -128 -3 1 -345 c0 -190 4 -361 7 -380 5 -23 -15 6 -56 85 -35 66 -135
238 -223 383 l-158 262 -134 0 c-97 0 -134 -3 -137 -12z"/>
<path d="M2055 2368 c-3 -7 -4 -260 -3 -563 l3 -550 130 0 130 0 3 563 2 562
-130 0 c-95 0 -132 -3 -135 -12z"/>
<path d="M2555 2368 c-3 -7 -4 -260 -3 -563 l3 -550 130 0 130 0 3 201 2 200
49 48 49 48 152 -228 c84 -126 162 -239 173 -251 19 -22 28 -23 163 -23 79 0
145 4 148 8 3 5 -12 33 -33 63 -21 30 -122 177 -224 328 l-187 274 42 46 c23
25 117 124 208 219 91 95 167 177 168 182 2 6 -56 10 -151 10 l-155 0 -199
-214 c-109 -118 -200 -215 -203 -215 -3 -1 -4 96 -2 214 l3 215 -131 0 c-95 0
-132 -3 -135 -12z"/>
<path d="M4007 2308 c-27 -79 -83 -233 -172 -478 -31 -85 -69 -191 -85 -235
-15 -44 -49 -138 -74 -208 -33 -93 -42 -129 -32 -133 7 -2 66 -3 132 -2 l119
3 35 103 35 102 201 0 200 0 28 -92 c15 -51 32 -99 38 -105 13 -17 264 -18
273 -2 4 6 -7 47 -23 92 -17 45 -60 163 -96 262 -102 285 -232 645 -256 708
l-21 57 -139 0 -138 0 -25 -72z m255 -528 c17 -52 33 -101 36 -107 3 -10 -27
-13 -131 -13 l-135 0 35 108 c19 59 49 164 66 234 l32 126 33 -126 c17 -70 46
-170 64 -222z"/>
</g>
</svg>
